<svg id="visual" viewBox="0 0 900 600" width="900" height="600" xmlns="http://www.w3.org/2000/svg" xmlns:xlink="http://www.w3.org/1999/xlink" version="1.1"><rect x="0" y="0" width="900" height="600" fill="#aebbc1"></rect><path d="M0 295L18.8 305.5C37.7 316 75.3 337 112.8 337C150.3 337 187.7 316 225.2 303.7C262.7 291.3 300.3 287.7 337.8 274C375.3 260.3 412.7 236.7 450.2 230C487.7 223.3 525.3 233.7 562.8 264C600.3 294.3 637.7 344.7 675.2 361.5C712.7 378.3 750.3 361.7 787.8 345.2C825.3 328.7 862.7 312.3 881.3 304.2L900 296L900 0L881.3 0C862.7 0 825.3 0 787.8 0C750.3 0 712.7 0 675.2 0C637.7 0 600.3 0 562.8 0C525.3 0 487.7 0 450.2 0C412.7 0 375.3 0 337.8 0C300.3 0 262.7 0 225.2 0C187.7 0 150.3 0 112.8 0C75.3 0 37.7 0 18.8 0L0 0Z" fill="#4c5665" stroke-linecap="round" stroke-linejoin="miter"></path></svg>