<?xml version="1.0" standalone="no"?><svg xmlns="http://www.w3.org/2000/svg" viewBox="0 0 1440 320"><path fill="#f3f4f5" fill-opacity="9" d="M0,224L18.5,186.7C36.9,149,74,75,111,64C147.7,53,185,107,222,133.3C258.5,160,295,160,332,138.7C369.2,117,406,75,443,96C480,117,517,203,554,229.3C590.8,256,628,224,665,213.3C701.5,203,738,213,775,213.3C812.3,213,849,203,886,170.7C923.1,139,960,85,997,106.7C1033.8,128,1071,224,1108,261.3C1144.6,299,1182,277,1218,261.3C1255.4,245,1292,235,1329,218.7C1366.2,203,1403,181,1422,170.7L1440,160L1440,0L1421.5,0C1403.1,0,1366,0,1329,0C1292.3,0,1255,0,1218,0C1181.5,0,1145,0,1108,0C1070.8,0,1034,0,997,0C960,0,923,0,886,0C849.2,0,812,0,775,0C738.5,0,702,0,665,0C627.7,0,591,0,554,0C516.9,0,480,0,443,0C406.2,0,369,0,332,0C295.4,0,258,0,222,0C184.6,0,148,0,111,0C73.8,0,37,0,18,0L0,0Z"></path></svg>