<?xml version="1.0" standalone="no"?><svg xmlns="http://www.w3.org/2000/svg" viewBox="0 0 1440 320"><path fill="#f3f4f5" fill-opacity="6" d="M0,32L24,58.7C48,85,96,139,144,154.7C192,171,240,149,288,133.3C336,117,384,107,432,128C480,149,528,203,576,218.7C624,235,672,213,720,192C768,171,816,149,864,138.7C912,128,960,128,1008,149.3C1056,171,1104,213,1152,213.3C1200,213,1248,171,1296,149.3C1344,128,1392,128,1416,128L1440,128L1440,0L1416,0C1392,0,1344,0,1296,0C1248,0,1200,0,1152,0C1104,0,1056,0,1008,0C960,0,912,0,864,0C816,0,768,0,720,0C672,0,624,0,576,0C528,0,480,0,432,0C384,0,336,0,288,0C240,0,192,0,144,0C96,0,48,0,24,0L0,0Z"></path></svg>