<?xml version="1.0" standalone="no"?><svg xmlns="http://www.w3.org/2000/svg" viewBox="0 0 1440 320"><path fill="#f3f4f5" fill-opacity="5" d="M0,192L15,186.7C30,181,60,171,90,176C120,181,150,203,180,176C210,149,240,75,270,37.3C300,0,330,0,360,10.7C390,21,420,43,450,64C480,85,510,107,540,144C570,181,600,235,630,213.3C660,192,690,96,720,48C750,0,780,0,810,42.7C840,85,870,171,900,208C930,245,960,235,990,197.3C1020,160,1050,96,1080,74.7C1110,53,1140,75,1170,117.3C1200,160,1230,224,1260,245.3C1290,267,1320,245,1350,218.7C1380,192,1410,160,1425,144L1440,128L1440,0L1425,0C1410,0,1380,0,1350,0C1320,0,1290,0,1260,0C1230,0,1200,0,1170,0C1140,0,1110,0,1080,0C1050,0,1020,0,990,0C960,0,930,0,900,0C870,0,840,0,810,0C780,0,750,0,720,0C690,0,660,0,630,0C600,0,570,0,540,0C510,0,480,0,450,0C420,0,390,0,360,0C330,0,300,0,270,0C240,0,210,0,180,0C150,0,120,0,90,0C60,0,30,0,15,0L0,0Z"></path></svg>